<svg width="20" height="20" viewBox="0 0 20 20" fill="none" xmlns="http://www.w3.org/2000/svg">
<path d="M7.93387 15.8334C7.8242 15.834 7.71548 15.813 7.61395 15.7715C7.51241 15.7301 7.42007 15.669 7.3422 15.5917C7.26409 15.5143 7.2021 15.4221 7.15979 15.3206C7.11748 15.219 7.0957 15.1101 7.0957 15.0001C7.0957 14.8901 7.11748 14.7811 7.15979 14.6796C7.2021 14.578 7.26409 14.4859 7.3422 14.4084L11.7589 10.0001L7.3422 5.59174C7.2645 5.51404 7.20287 5.4218 7.16082 5.32028C7.11877 5.21876 7.09712 5.10996 7.09712 5.00007C7.09712 4.89019 7.11877 4.78138 7.16082 4.67987C7.20287 4.57835 7.2645 4.48611 7.3422 4.40841C7.4199 4.33071 7.51214 4.26907 7.61366 4.22702C7.71518 4.18497 7.82399 4.16333 7.93387 4.16333C8.04375 4.16333 8.15256 4.18497 8.25408 4.22702C8.35559 4.26907 8.44784 4.33071 8.52553 4.40841L13.5255 9.40841C13.6036 9.48588 13.6656 9.57804 13.7079 9.67959C13.7503 9.78114 13.772 9.89006 13.772 10.0001C13.772 10.1101 13.7503 10.219 13.7079 10.3206C13.6656 10.4221 13.6036 10.5143 13.5255 10.5917L8.52553 15.5917C8.44767 15.669 8.35532 15.7301 8.25379 15.7715C8.15226 15.813 8.04354 15.834 7.93387 15.8334Z" fill="#BABAC0"/>
</svg>
