<svg width="108" height="24" viewBox="0 0 108 24" fill="none" xmlns="http://www.w3.org/2000/svg">
<path d="M1.19053 16.115V11.6456H0V9.34325H1.19053V6.95056H4.00018V9.34325H6.33361V11.6456H4.00018V15.6635C4.00018 16.2956 4.2859 16.5664 4.90498 16.5664C5.42881 16.5664 5.90502 16.431 6.28599 16.2504V18.4174C5.71454 18.7334 5.00022 18.9591 4.0478 18.9591C2.33344 18.9591 1.19053 18.3271 1.19053 16.115Z" fill="black"/>
<path d="M7.66797 14.0835C7.66797 11.3748 9.71568 9.16272 12.5729 9.16272C15.9064 9.16272 17.4303 11.6005 17.4303 14.3092C17.4303 14.535 17.4303 14.7607 17.3827 15.0316H10.4776C10.7633 16.2505 11.6681 16.8825 12.9063 16.8825C13.8587 16.8825 14.5254 16.6116 15.335 15.9345L16.9541 17.2888C16.0017 18.3723 14.6683 19.0495 12.9063 19.0495C9.85854 19.0043 7.66797 17.0179 7.66797 14.0835ZM14.6683 13.3612C14.4778 12.1423 13.7635 11.3748 12.5729 11.3748C11.3824 11.3748 10.6205 12.1874 10.43 13.3612H14.6683Z" fill="black"/>
<path d="M21.6177 13.9932L18.2366 9.34326H21.2844L23.1416 12.0971L24.9988 9.34326H27.9513L24.5702 13.9481L28.0942 18.7786H25.0464L23.0464 15.8441L21.0463 18.7786H18.0938L21.6177 13.9932Z" fill="black"/>
<path d="M29.8125 9.3433H32.6222V10.6976C33.2888 9.88504 34.0984 9.16272 35.527 9.16272C37.67 9.16272 38.9081 10.5171 38.9081 12.684V18.7786H36.0985V13.5418C36.0985 12.2777 35.4794 11.6005 34.3841 11.6005C33.2888 11.6005 32.6222 12.2326 32.6222 13.5418V18.8237H29.8125V9.3433Z" fill="black"/>
<path d="M40.9023 14.0835C40.9023 11.3748 43.1882 9.16272 46.3312 9.16272C49.4265 9.16272 51.7123 11.3297 51.7123 14.0835C51.7123 16.7922 49.4265 19.0043 46.2835 19.0043C43.1882 19.0043 40.9023 16.8374 40.9023 14.0835ZM48.9027 14.0835C48.9027 12.684 47.855 11.4651 46.2835 11.4651C44.6644 11.4651 43.712 12.6389 43.712 14.0835C43.712 15.483 44.7597 16.7019 46.3312 16.7019C47.9503 16.7019 48.9027 15.5282 48.9027 14.0835Z" fill="black"/>
<path d="M53.7148 9.3433H56.5245V10.6976C57.1912 9.88504 58.0484 9.16272 59.477 9.16272C60.7628 9.16272 61.7628 9.70446 62.2867 10.6525C63.1438 9.70446 64.1915 9.16272 65.5725 9.16272C67.6678 9.16272 68.9536 10.3816 68.9536 12.6389V18.7786H66.144V13.5418C66.144 12.2777 65.5725 11.6005 64.4772 11.6005C63.4296 11.6005 62.7629 12.2326 62.7629 13.5418V18.8237H59.9532V13.5418C59.9532 12.2777 59.3818 11.6005 58.2865 11.6005C57.2388 11.6005 56.5721 12.2326 56.5721 13.5418V18.8237H53.7625V9.3433H53.7148Z" fill="black"/>
<path d="M70.7617 16.0699C70.7617 13.9933 72.4285 13.0452 74.7619 13.0452C75.7619 13.0452 76.4763 13.2258 77.1906 13.4515V13.271C77.1906 12.1423 76.4763 11.5554 75.0476 11.5554C73.9523 11.5554 73.1904 11.736 72.2856 12.052L71.5713 10.0205C72.6666 9.56907 73.7618 9.25305 75.4286 9.25305C76.9525 9.25305 78.0954 9.65936 78.8097 10.2914C79.5716 11.0137 79.905 12.052 79.905 13.3161V18.7786H77.1906V17.7403C76.5239 18.4626 75.5715 18.9592 74.1904 18.9592C72.3332 18.9592 70.7617 17.966 70.7617 16.0699ZM77.2858 15.4831V14.9865C76.8096 14.7607 76.1905 14.6253 75.4762 14.6253C74.2857 14.6253 73.5237 15.0768 73.5237 15.9797C73.5237 16.702 74.1428 17.1083 75.0476 17.1083C76.381 17.1083 77.2858 16.4311 77.2858 15.4831Z" fill="black"/>
<path d="M82.3867 9.34321H85.1964V11.2393C85.7678 9.9301 86.7202 9.07234 88.387 9.16263V11.9616H88.2441C86.3869 11.9616 85.1964 13.0451 85.1964 15.3024V18.7785H82.3867V9.34321Z" fill="black"/>
<path d="M90.6202 16.115V11.6456H89.4297V9.34325H90.6202V6.95056H93.4299V9.34325H95.7633V11.6456H93.4299V15.6635C93.4299 16.2956 93.7156 16.5664 94.3347 16.5664C94.8585 16.5664 95.3347 16.431 95.7157 16.2504V18.4174C95.1442 18.7334 94.4299 18.9591 93.4775 18.9591C91.7631 18.9591 90.6202 18.3271 90.6202 16.115Z" fill="black"/>
<path d="M108 7.60226L106.625 9.92044L103.875 8.32953V11.5114H101.125V8.32953L98.375 9.92044L97 7.60226L99.7958 6.01135L97.0458 4.42044L98.375 2.10226L101.125 3.69317V0.511353H103.875V3.69317L106.625 2.10226L107.954 4.42044L105.204 6.01135L108 7.60226Z" fill="black"/>
</svg>
